<svg xmlns="http://www.w3.org/2000/svg" viewBox="0 0 651.07 542.56"><defs><style>.cls-1{fill:#ff5a79;}.cls-2{fill:#dae4ea;}.cls-3{fill:#fff;}.cls-4{fill:#c4ced6;}</style></defs><g id="Capa_2" data-name="Capa 2"><g id="Objects"><path class="cls-1" d="M641,123.2a163.09,163.09,0,0,1,9.35,71.13L471.46,11.54C537.63,4.47,607.94,32.29,641,123.2Z"/><path class="cls-1" d="M10.07,123.06c69.4-187.55,294.68-103.41,315.51-9.73,10.2-35.54,44.7-67.8,87.82-86.38L635.17,253.48c-62.65,148-289.24,265.52-309.6,289.08C299.55,518.59-64.58,324.84,10.07,123.06Z"/><path class="cls-2" d="M471.46,11.54,650.39,194.33a196.65,196.65,0,0,1-15.23,59.15L413.4,26.94A201.84,201.84,0,0,1,471.46,11.54Z"/><path class="cls-2" d="M566.07,193.21s-69.68,64.56-55.86,164.36L457.76,304l-53.2,54.12s11.13-118.26,109.2-218.43Z"/><path class="cls-3" d="M510.77,142.65c-19.5,19.9-17.67,60.46,4,90.16l17.36,23.77c21.71,29.66,47.44,38.29,57.18,19.2s33-42.92,51.77-52.89,10.25-36.24-18.78-58.41l-23.28-17.74C570,124.57,530.25,122.73,510.77,142.65Z"/><path class="cls-2" d="M514.76,138.36c-5.81,7.12,5,17.49,21.08,26l9.22,4.85c16.11,8.5,20.21,3.44,9.1-11.19l-6.34-8.37C536.7,135,520.57,131.23,514.76,138.36Z"/><path class="cls-4" d="M581,271.58c0,4.05-4.39,3.86-6,4.14-4.94.77-14.21-2.48-25.45-14a101.2,101.2,0,0,1-9.46-11.26l-17.36-23.74c-12.16-16.61-17.34-37.43-15.05-54.39C507.68,172.36,581,223.39,581,271.58Z"/><path class="cls-2" d="M461.93,86.83S398.75,158,301,143.88l52.47,53.62-53.05,54.25s115.82-11.31,213.88-111.47Z"/><path class="cls-3" d="M511.44,143.32c-19.5,19.9-59.19,18-88.27-4.11l-23.26-17.76C370.85,99.27,362.42,73,381.12,63s42-33.74,51.77-52.87,35.47-10.49,57.19,19.2l17.36,23.75C529.11,82.82,530.91,123.4,511.44,143.32Z"/><path class="cls-2" d="M515.64,139.24c-7,5.93-17.13-5.08-25.46-21.53l-4.73-9.42c-8.34-16.45-3.4-20.66,11-9.29l8.18,6.48C518.89,116.82,522.6,133.31,515.64,139.24Z"/><path class="cls-4" d="M385.23,71.54c-4,0-3.8,4.49-4.05,6.17-.76,5.05,2.42,14.53,13.67,26a100.47,100.47,0,0,0,11,9.65l23.26,17.74c16.27,12.42,36.64,17.71,53.25,15.36C482.36,146.46,432.4,71.54,385.23,71.54Z"/><path class="cls-3" d="M491.07,122.45c-10.95,14.77-12.33,34.62-3,44.1s28.71,8.13,43.19-3l4.87-3.79c14.49-11.17,15.7-30.92,2.89-44l-1.16-1.18c-12.83-13.1-32.15-11.85-43.09,2.94Z"/><path class="cls-2" d="M506.71,147.52c8.45,8.63,25.28,8.28,39.16-.28a30.64,30.64,0,0,1-9.65,12.41l-5,3.87c-14.48,11.17-33.89,12.55-43.19,3s-7.93-29.33,3-44.1l3.8-5.12A29.94,29.94,0,0,1,507,107.52C498.59,121.69,498.25,138.86,506.71,147.52Z"/></g></g></svg>