<svg xmlns="http://www.w3.org/2000/svg" viewBox="0 0 651.06 607.65"><defs><style>.cls-1{fill:#89664c;}.cls-2{fill:#ffc5d3;}.cls-3{fill:#e0ac7e;}.cls-4{fill:#3b302a;}.cls-5{fill:#ffd6bb;}</style></defs><g id="Capa_2" data-name="Capa 2"><g id="Objects"><ellipse class="cls-1" cx="561.54" cy="292.63" rx="89.52" ry="89.31"/><ellipse class="cls-2" cx="561.54" cy="292.63" rx="58.28" ry="58.16"/><ellipse class="cls-1" cx="89.52" cy="292.63" rx="89.52" ry="89.31"/><ellipse class="cls-2" cx="89.52" cy="292.63" rx="58.3" ry="58.16"/><path class="cls-1" d="M449,51.87C461.38,45.32,469.44,42,469.44,42c-35.14-12.35-65.62-19.56-92-22.84C391.31,8.74,400.6,4.76,400.6,4.76c-221.56-31.23-327,97.18-327,211.13l503.9,0C569.91,136.56,525.6,82.27,449,51.87Z"/><path class="cls-1" d="M578.62,234c0-105.33-113.32-190.69-253.09-190.69S72.44,128.7,72.44,234c0,24.64,6.43,48.14,17.72,69.76-11.29,21.63-17.72,45.09-17.72,69.76,0,105.32,113.3,190.7,253.09,190.7s253.09-85.38,253.09-190.7c0-24.64-6.43-48.13-17.72-69.76C572.19,282.15,578.62,258.67,578.62,234Z"/><path class="cls-3" d="M542.78,240.94c0-183.75-217.25-66.69-217.25-66.69S108.28,57.19,108.28,240.94c0,51.41,31.65,97.24,81.09,127.15-14.41,18-22.84,39-22.84,61.49,0,66,71.19,119.47,159,119.47s159-53.48,159-119.47c0-22.51-8.43-43.51-22.84-61.49C511.13,338.18,542.78,292.35,542.78,240.94Z"/><path class="cls-4" d="M359.67,355.31c0,12.35-4.85,22.32-10.85,22.32S338,367.66,338,355.31,342.82,333,348.82,333,359.67,343,359.67,355.31Z"/><path class="cls-4" d="M313.09,355.31c0,12.35-4.83,22.32-10.85,22.32s-10.85-10-10.85-22.32S296.23,333,302.24,333,313.09,343,313.09,355.31Z"/><ellipse class="cls-4" cx="379.81" cy="456.2" rx="48.83" ry="29.5" transform="translate(-111.57 123.16) rotate(-16.09)"/><path class="cls-1" d="M79.49,288.55,0,607.65H129.66c-16.94-83.78,43.42-227.93,43.42-227.93Z"/><path class="cls-5" d="M148.16,205.42s52.94-48.71,103-42.8c24.73,2.93-76.85,82.24-76.85,82.24s105.4-89.3,127.21-61.27c19.79,25.47-96.86,106.55-96.86,106.55s108-87.42,104.71-49.43c-3.69,41.93-85.49,139.56-135.46,149.5C101.85,404.58,46,358.65,83.69,200.27,102.57,120.92,122,209.56,148.16,205.42Z"/><path class="cls-1" d="M571.59,288.55l79.47,319.1H521.4c17-83.78-43.4-227.93-43.4-227.93Z"/><path class="cls-5" d="M502.92,205.42s-53-48.71-103-42.8c-24.71,2.93,76.85,82.24,76.85,82.24s-105.37-89.3-127.19-61.27c-19.79,25.47,96.86,106.55,96.86,106.55s-108-87.42-104.71-49.43c3.67,41.93,85.47,139.56,135.44,149.5,72.06,14.37,127.94-31.56,90.22-189.94C548.49,120.92,529.07,209.56,502.92,205.42Z"/></g></g></svg>