<svg xmlns="http://www.w3.org/2000/svg" viewBox="0 0 453.3 672.76"><defs><style>.cls-1{fill:#75a843;}.cls-2{fill:#83bf4f;}.cls-3{fill:#947151;}.cls-4{fill:#871212;}.cls-5{fill:#991d1d;}.cls-6{fill:#ad2727;}.cls-7{fill:#cc3636;}.cls-8{fill:#e24b4b;}</style></defs><g id="Capa_2" data-name="Capa 2"><g id="Objects"><polygon class="cls-1" points="236.3 166.06 263.44 672.76 209.18 672.76 236.3 166.06"/><path class="cls-2" d="M173.07,470.1c74.24,39.72,57.81,109.7,57.81,109.7S169.57,634.72,95.3,595C44.15,567.62,0,460.75,0,460.75S121.89,442.74,173.07,470.1Z"/><polygon class="cls-3" points="323.58 503.05 243.66 480.59 243.28 524.28 323.58 503.05"/><path class="cls-4" d="M157.06,219C197.4,322.56,214,375.9,284.13,375.9S461.22,195.59,359,137.26C258.83,80.12,262,0,262,0S91.53,50.87,157.06,219Z"/><path class="cls-5" d="M369.36,240.92C317.38,340,312.47,397.8,242.28,397.8s-198.91-236.55-85-272.62c141-44.64,177.07-96.25,177.07-96.25S447,92.92,369.36,240.92Z"/><path class="cls-6" d="M378.41,152.36c.33-42.45-185-77.88-217-143.81,0,0-89.52,64.15-55,129.79C125.65,174.81,377.29,295.18,378.41,152.36Z"/><path class="cls-7" d="M279,189.49c112.85,140.65,52.27,225.17-40,225.17S45.75,325.63,71.9,221.79c26.28-104.39-11-192.86-11-192.86S192.74,82,279,189.49Z"/><path class="cls-8" d="M175.66,178.73c-128.43,129.08-22.35,235.93,70,235.93s167.08-86.34,167.08-192.87S441.28,50,441.28,50,267.13,86.76,175.66,178.73Z"/><path class="cls-1" d="M248.42,369.66c142.66-1.92,80.2,53.83-12.1,53.83-227,0-216.95-198.11-216.95-198.11S121.8,371.39,248.42,369.66Z"/><path class="cls-2" d="M248.42,369.66c-38.33,15.64-138,37.72-47.85,55.63,178.22,35.39,252.73-193,252.73-193S362.23,323.28,248.42,369.66Z"/></g></g></svg>