<svg xmlns="http://www.w3.org/2000/svg" viewBox="0 0 651.06 651.06"><defs><style>.cls-1{fill:#4fd1d9;}</style></defs><g id="Capa_2" data-name="Capa 2"><g id="Objects"><path class="cls-1" d="M535.07,306.12a325,325,0,0,0-33.17-124.7,325.56,325.56,0,0,0,41.16-31.71,278.4,278.4,0,0,1,61.63,156.41ZM462,531.53q8.91-10.85,16.83-22.4a278.27,278.27,0,0,1,32.7,25.31,279.29,279.29,0,0,1-125,64.24A326.53,326.53,0,0,0,462,531.53ZM171.46,509.68q6.63,9.68,14,18.86a325.71,325.71,0,0,0,77.35,69.75,279.15,279.15,0,0,1-123.25-63.85A278,278,0,0,1,171.46,509.68ZM188.32,119q-8.94,10.85-16.87,22.39a280.29,280.29,0,0,1-31.9-24.75A279.44,279.44,0,0,1,262.77,52.8,325.73,325.73,0,0,0,188.32,119Zm273.21,0a326.69,326.69,0,0,0-75.07-66.6,279.14,279.14,0,0,1,125,64.24,276.83,276.83,0,0,1-32.72,25.31C473.4,134.05,467.63,126.39,461.53,119ZM348.37,186.71v-104a280.62,280.62,0,0,1,89.88,81.34A276.13,276.13,0,0,1,348.37,186.71Zm0,119.41v-73.6a322.06,322.06,0,0,0,113.4-28.89,277.69,277.69,0,0,1,27.51,102.49Zm0,112.42V351.81H488.72a277.63,277.63,0,0,1-27,95.62A322.33,322.33,0,0,0,348.37,418.54Zm0,149.78v-104A275.93,275.93,0,0,1,438.18,487,280.5,280.5,0,0,1,348.37,568.32Zm-45.68-104V569.28a276.81,276.81,0,0,1-91.28-81.64A276,276,0,0,1,302.69,464.37Zm0-112.56v66.73A322,322,0,0,0,188,448.09a278.9,278.9,0,0,1-26.83-96.28Zm0-119.29v73.6H160.56a277.68,277.68,0,0,1,27.75-103A321.84,321.84,0,0,0,302.69,232.52Zm0-150.5V186.71a276.31,276.31,0,0,1-90.79-23.06A280.23,280.23,0,0,1,302.69,82ZM108,149.71a322.86,322.86,0,0,0,40.25,31.11,325.77,325.77,0,0,0-33.47,125.3H46.37A278.59,278.59,0,0,1,108,149.71ZM46.94,351.81h68.33a326.13,326.13,0,0,0,33,118.43A327.78,327.78,0,0,0,108,501.36,278.4,278.4,0,0,1,46.94,351.81ZM543.06,501.36a326.57,326.57,0,0,0-41.16-31.72,325.67,325.67,0,0,0,32.68-117.83h69.56A278.58,278.58,0,0,1,543.06,501.36ZM325.53,0C146,0,0,146,0,325.53S146,651.06,325.53,651.06,651.06,505,651.06,325.53,505,0,325.53,0Z"/></g></g></svg>