<svg xmlns="http://www.w3.org/2000/svg" viewBox="0 0 651.06 651.06"><defs><style>.cls-1{fill:#008db3;}.cls-2{fill:#ffc942;}</style></defs><g id="Capa_2" data-name="Capa 2"><g id="Objects"><path class="cls-1" d="M612,224.81,629.9,441.24C583.25,563.9,464.56,651.06,325.53,651.06,145.75,651.06,0,505.31,0,325.53S145.75,0,325.53,0a324,324,0,0,1,176.8,52.15Z"/><path class="cls-2" d="M502.26,52.11C506,62.49,509,75.33,497.5,69.33c-18.23-9.56-42.56-21-34.74-13.57s10.9,16.63-1.51,15.11-34.1-4.15-43.65,9.74-22.57,11.3-26,16.51-8.69,27.79-18.25,20.84-29.53-31.49-13-24.44,34.73-.74,20-18.12-30.39-11.29-36.47-20.84-28.66-21.71-44.29,2.6-29.78,55.6-38.34,62.11-26.79,18.67-24.2,28.22,3.48,33,13,26,15.63-9.55,19.12-3.47,2.6,20,9.55,19.11c0,0,15.62-11.29,16.5-20.85s-11.3-15.62-1.74-29.52,27.81-40.9,23.46-27.39S303,144,309.94,152.71s44.29-2.61,26.91,6.08-26.05,14.76-29.53,26.05-6.09,20-14.77,15.63-19.09-2.6-24.3-2.6-7-20-13.9-15.63,2.6,18.77-5.21,19.37-8.69,9.28-17.36,16.23S210.92,237,203.1,238.69s12.16,10.43,8.69,20-20.83,8.69-26.91,9.56-.87,13.88-4.34,21.71,3.47,15.62,13.88,15.62S216.14,303,217,293.4s11.29-26,18.25-22.58,22.32-6.08,25.92-.86S284.75,293.4,283,296s-12.15,7.83-7.81,9.56c0,0,2.76,5.47,5.66,4.31s7.82-15.34,10.42-17.08,3.48-9.26-1.46-12.74-23.44-16.5-19.39-22.58S284.91,265,289,269.63s10.43,9.56,10.72,19.68,6.09,9.56,7,14.47,2.88,7,8.69,6.24,8.09-13.47,4.91-16.65-3.17-10.15,2.89-10.15,13.61-5.2,13.9-8.39S343.12,252,347.46,252s7.23,7.81,9,11.87,12.74-3.19,11-7.24.87-5.5,4.07-5.5.58,8.39,3.76,11,17.95,12.16,13,17.07-13,2-18.52-2.32-19.69-1.73-23.46,2.61-7,6.37-13.32,6.66-5.51,11.87,0,16.79,13,.58,18.53,4.05,14.18-4.63,15.63.87-.87,22-6.38,22.58-22.61,4.64-35.2-1.16-24.71-8.09-25.88-2-1.44,10.51-10.13,5.11-16.21-8.58-21.73-8.58-5.78-9.27-4.62-17.37-13.34-5.21-21.72-3.18-26,8.1-36.47,8.1-15.64,2.32-17.39,6.95-11.87,4.63-12.16,13.32,1.46,11.21-7.8,14.87-12.17,20.45-16.81,25.09,4.64,15.63,0,21.43-9,20.84-1.34,24.32,15.24,17.94,18.72,23.74,15.05,10.43,26.64,8.69S229,441,240,446.25s24.31,4.05,18,15.06,2.89,24.9,11,33,5.21,26.62,1.14,33-2.88,17.38,1.16,23.17,7,17.95,7,23.17,8.69,15.05,9.83,25.48-6.36,22.58,3.47,22.58,34.76,1.15,36.5-3.48,22-21.43,27.21-29.53,16.79-20.85,13.31-28.37.58-13.9,11.59-17.94,10.41-34.75,5.2-42.85,4.64-26.06,16.81-31.85,40.52-55,31.26-50.95-28.38,7.52-34.73,3.46-44-69.86-38.81-73.72S395.77,405.7,401,413.83s56.75-23.15,62.54-30.68-3.47-15.63-7-15.63-15-8.1-17.95-3.47-25.48-31.27-17.38-27.8,24.32,14.47,38.8,22.58,32.42-5.78,42.85,10.43,17.36,5.21,16.79,13.32,13.31,38.8,17.94,48.64,14.48-4.06,15.64-15.64,24.31-30.1,32.4-36.47,23.17,2.9,25.5,16.21,13.31-2.32,13.31,8.11-1.88,25.32,5.43,37.85a325.54,325.54,0,0,0,21.14-115.75C651.06,210.9,591.8,110.09,502.26,52.11Z"/><path class="cls-2" d="M156.18,93.64c-6.09,1.69-13,9.55-21.7,5.21s-26.91,1.73-15.64,12.16,6.85,17.37,16.89,18.24,17.85-13.89,24.8-13S163.36,91.66,156.18,93.64Z"/><path class="cls-2" d="M420.1,518c-7.38.81-5.81,16.21-13.9,17.94s-1.21,8.68-4.94,14.48-5.54,17.95,0,25.48,7.84,8.1,13.63-4S435.71,516.29,420.1,518Z"/><path class="cls-2" d="M202.37,165.69c-3.11-.19-6.38,2-9.85,2.61s-5.49,4.91-5.79,9.84,8.7,7,5.21,10.14-20.56,6.37-17.94,11.57,5.78,10.14,2.31,15.63,3.47,6.09,9.56,4.06,10.42-9.56,9.85-14.48,9.27-6.09,6.65-2.6-8.39,15.17-5.51,18.15-9,8.48-4.62,10.52,15.74-8.7,22.86-7,9-1.74,9.83-7.82-9-14.48-12.44-21.42S211.93,166.27,202.37,165.69Z"/></g></g></svg>