<svg xmlns="http://www.w3.org/2000/svg" viewBox="0 0 562.35 651.06"><defs><style>.cls-1{fill:#ff9d33;}.cls-2{fill:#ffce31;}.cls-3{fill:#ffdf85;}</style></defs><g id="Capa_2" data-name="Capa 2"><g id="Objects"><path class="cls-1" d="M552.05,262.25s-33,30.05-88.08,65.91c-15.06-87.7-56.74-196-139.34-328.16,0,0-27,141.8-116.9,276-39.25-60.75-56.08-108.43-56.08-108.43-283,283-48.42,483.48,98.89,483.48C439.61,651.06,606,560.33,552.05,262.25Z"/><path class="cls-2" d="M441,514.68c16.38-36,27.71-82.16,30.34-141,0,0-23.08,20.05-61.66,43.95C399.08,359.17,369.92,287,312.1,198.82c0,0-18.9,94.57-81.84,184.05C202.8,342.37,191,310.58,191,310.58c-47,74-65.38,132.73-66.44,178.59-26-9.49-41.94-17.69-41.94-17.69C127.07,604.15,219.05,633,260.24,633c73.61,0,148.54-21.81,222.82-127C483.05,505.93,466.74,510.44,441,514.68Z"/><path class="cls-3" d="M171.93,454.16s30.32,41.51,53.41,31.49c0,0,43.85-68.38,106.76-106.38,0,0-12.92,104.23,1.92,122.65,19.72,24.51,73.1-27.17,73.1-27.17,0,61.59-67.4,139.2-127.67,139.2C219.62,614,134.75,547.15,171.93,454.16Z"/><path class="cls-1" d="M474.09,174.91a498.14,498.14,0,0,0,38.17-66.82c38.11,62.68,15.62,100.78-1.13,113.24C488.67,238.06,447.87,213.05,474.09,174.91Z"/><path class="cls-1" d="M59.45,164.2C37.2,126,34.71,78.27,34.71,78.27c-54.32,81.91-33.1,126.49-15,140C43.93,236.38,85.12,208.39,59.45,164.2Z"/><path class="cls-1" d="M185.83,79.11c2.78-25.7-8-52.36-8-52.36C229.37,60,228.77,89,222,100.22,213,115.36,182.63,108.8,185.83,79.11Z"/></g></g></svg>